<svg width="119" height="94" viewBox="0 0 119 94" fill="none" xmlns="http://www.w3.org/2000/svg">
<path d="M60.0801 93.7C80.3545 93.7 96.7901 92.6747 96.7901 91.41C96.7901 90.1453 80.3545 89.12 60.0801 89.12C39.8057 89.12 23.3701 90.1453 23.3701 91.41C23.3701 92.6747 39.8057 93.7 60.0801 93.7Z" fill="#F2F2F2"/>
<path d="M80.16 25.17C71.7899 25.17 63.27 24.83 55.2999 22.61C47.4799 20.44 40.2999 16.23 33.8999 11.36C29.7099 8.19001 25.8999 5.66001 20.4599 6.04001C15.138 6.328 10.0487 8.31533 5.93995 11.71C-0.980052 17.77 0.0599475 29 2.82995 36.86C6.98995 48.73 19.6499 57 30.4099 62.35C42.84 68.56 56.5 72.17 70.1899 74.24C82.1899 76.07 97.6099 77.39 108.01 69.56C117.56 62.35 120.18 45.91 117.84 34.81C117.272 31.5309 115.526 28.5721 112.93 26.49C106.22 21.58 96.2099 24.86 88.6699 25.02C85.8699 25.08 83.02 25.15 80.16 25.17Z" fill="#F2F2F2"/>
<path d="M8.28003 3.11999L21.28 2.01999C22.9011 1.87804 24.5218 2.29726 25.8707 3.20746C27.2196 4.11766 28.2149 5.46361 28.69 7.01999L41.15 48.72L38.71 53.09C38.0833 54.216 37.7739 55.4909 37.8149 56.7789C37.8558 58.0669 38.2455 59.3196 38.9424 60.4035C39.6394 61.4874 40.6174 62.3619 41.7723 62.9336C42.9271 63.5053 44.2155 63.7529 45.5 63.65L95.4 59.41" stroke="#BABABA" stroke-linecap="round" stroke-linejoin="round"/>
<path d="M30.55 13.35L88.5501 8.42999C89.1214 8.38104 89.6965 8.46135 90.2325 8.66497C90.7686 8.86858 91.252 9.19028 91.6468 9.6062C92.0416 10.0221 92.3376 10.5216 92.5131 11.0675C92.6885 11.6135 92.7387 12.192 92.6601 12.76L88.7301 41.13C88.6107 41.9812 88.2085 42.7675 87.5882 43.3624C86.9679 43.9573 86.1655 44.3263 85.31 44.41L41.1501 48.72L30.55 13.35Z" fill="white" stroke="#BABABA" stroke-linecap="round" stroke-linejoin="round"/>
<path d="M51.0501 73.21C53.6514 73.21 55.7601 71.1013 55.7601 68.5C55.7601 65.8988 53.6514 63.79 51.0501 63.79C48.4488 63.79 46.3401 65.8988 46.3401 68.5C46.3401 71.1013 48.4488 73.21 51.0501 73.21Z" fill="white" stroke="#BABABA" stroke-linecap="round" stroke-linejoin="round"/>
<path d="M83.8499 70.43C86.4512 70.43 88.5599 68.3213 88.5599 65.72C88.5599 63.1187 86.4512 61.01 83.8499 61.01C81.2486 61.01 79.1399 63.1187 79.1399 65.72C79.1399 68.3213 81.2486 70.43 83.8499 70.43Z" fill="white" stroke="#BABABA" stroke-linecap="round" stroke-linejoin="round"/>
<path d="M18.5746 0.893997L6.3186 1.93393C5.2565 2.02405 4.46856 2.9581 4.55868 4.0202C4.6488 5.08229 5.58286 5.87023 6.64495 5.78011L18.9009 4.74018C19.963 4.65006 20.7509 3.716 20.6608 2.65391C20.5707 1.59182 19.6366 0.803878 18.5746 0.893997Z" fill="#D2D2D2"/>
<path d="M54.97 35.26C55.2091 33.4349 56.065 31.7465 57.3957 30.4747C58.7263 29.2029 60.4517 28.4242 62.2857 28.2678C64.1197 28.1113 65.9521 28.5866 67.4789 29.6146C69.0057 30.6427 70.1352 32.1618 70.68 33.92" stroke="#BABABA" stroke-linecap="round" stroke-linejoin="round"/>
<path d="M70.8099 24.47C71.4285 24.47 71.9299 23.9686 71.9299 23.35C71.9299 22.7315 71.4285 22.23 70.8099 22.23C70.1914 22.23 69.6899 22.7315 69.6899 23.35C69.6899 23.9686 70.1914 24.47 70.8099 24.47Z" fill="#BABABA"/>
<path d="M53.0599 25.97C53.6785 25.97 54.1799 25.4686 54.1799 24.85C54.1799 24.2315 53.6785 23.73 53.0599 23.73C52.4414 23.73 51.9399 24.2315 51.9399 24.85C51.9399 25.4686 52.4414 25.97 53.0599 25.97Z" fill="#BABABA"/>
</svg>
