<svg width="119" height="107" viewBox="0 0 119 107" fill="none" xmlns="http://www.w3.org/2000/svg">
<path d="M79.66 38.42C71.2899 38.42 62.77 38.08 54.7999 35.86C46.9799 33.69 39.7999 29.48 33.3999 24.61C29.2099 21.44 25.3999 18.92 19.9599 19.3C14.6335 19.5916 9.54234 21.5901 5.43995 25C-1.48005 31 -0.440053 42.23 2.32995 50.12C6.48995 62 19.1499 70.23 29.9099 75.61C42.34 81.82 56 85.42 69.6899 87.5C81.6899 89.32 97.1099 90.65 107.51 82.81C117.06 75.61 119.68 59.17 117.34 48.07C116.773 44.7879 115.027 41.8257 112.43 39.74C105.72 34.84 95.7099 38.11 88.1699 38.28C85.3699 38.34 82.52 38.41 79.66 38.42Z" fill="#F2F2F2"/>
<path d="M59.18 106.95C79.4543 106.95 95.89 105.925 95.89 104.66C95.89 103.395 79.4543 102.37 59.18 102.37C38.9056 102.37 22.47 103.395 22.47 104.66C22.47 105.925 38.9056 106.95 59.18 106.95Z" fill="#F2F2F2"/>
<path d="M74.7727 0.821223L25.8974 7.42942C24.3322 7.64106 23.2348 9.08154 23.4464 10.6468L32.9246 80.749C33.1363 82.3143 34.5767 83.4116 36.142 83.2L85.0173 76.5918C86.5826 76.3802 87.68 74.9397 87.4683 73.3744L77.9901 3.27223C77.7785 1.70694 76.338 0.609587 74.7727 0.821223Z" fill="#D2D2D2"/>
<path d="M91.0101 11.11H41.6901C40.1105 11.11 38.8301 12.3905 38.8301 13.97V84.71C38.8301 86.2895 40.1105 87.57 41.6901 87.57H91.0101C92.5896 87.57 93.8701 86.2895 93.8701 84.71V13.97C93.8701 12.3905 92.5896 11.11 91.0101 11.11Z" fill="white" stroke="#BABABA" stroke-linecap="round" stroke-linejoin="round"/>
<path d="M78.1999 66.03H54.4899C53.6007 66.03 52.8799 66.7509 52.8799 67.64V67.65C52.8799 68.5392 53.6007 69.26 54.4899 69.26H78.1999C79.0891 69.26 79.8099 68.5392 79.8099 67.65V67.64C79.8099 66.7509 79.0891 66.03 78.1999 66.03Z" fill="#D2D2D2"/>
<path d="M77.3501 79.23H54.6001C54.3295 79.23 54.1101 79.4494 54.1101 79.72V79.87C54.1101 80.1406 54.3295 80.36 54.6001 80.36H77.3501C77.6207 80.36 77.8401 80.1406 77.8401 79.87V79.72C77.8401 79.4494 77.6207 79.23 77.3501 79.23Z" fill="#D2D2D2"/>
<path d="M83.15 73.9399H49.64C49.281 73.9399 48.99 74.231 48.99 74.5899C48.99 74.9489 49.281 75.2399 49.64 75.2399H83.15C83.509 75.2399 83.8 74.9489 83.8 74.5899C83.8 74.231 83.509 73.9399 83.15 73.9399Z" fill="#D2D2D2"/>
<path d="M89.2801 13.4399H43.4201C42.2824 13.4399 41.3601 14.3622 41.3601 15.4999V55.2699C41.3601 56.4076 42.2824 57.3299 43.4201 57.3299H89.2801C90.4178 57.3299 91.3401 56.4076 91.3401 55.2699V15.4999C91.3401 14.3622 90.4178 13.4399 89.2801 13.4399Z" fill="white" stroke="#BABABA" stroke-linecap="round" stroke-linejoin="round"/>
<path d="M72.47 45C72.7967 44.9922 73.1132 44.8852 73.3776 44.6933C73.642 44.5013 73.8418 44.2334 73.9503 43.9252C74.0588 43.617 74.071 43.283 73.9852 42.9677C73.8994 42.6525 73.7197 42.3707 73.47 42.16C71.3841 40.4323 68.7546 39.4978 66.0463 39.5216C63.3379 39.5454 60.7252 40.526 58.67 42.29C58.4223 42.5 58.2444 42.7803 58.1599 43.0938C58.0754 43.4073 58.0882 43.7391 58.1967 44.0451C58.3053 44.3511 58.5043 44.6169 58.7675 44.8071C59.0306 44.9973 59.3454 45.103 59.67 45.11L72.47 45Z" fill="white" stroke="#BABABA" stroke-linecap="round" stroke-linejoin="round"/>
<path d="M80.6401 34.99L74.8101 31.63L80.6401 28.26" stroke="#BABABA" stroke-width="0.71" stroke-linecap="round" stroke-linejoin="round"/>
<path d="M51.5801 34.99L57.4101 31.63L51.5801 28.26" stroke="#BABABA" stroke-width="0.71" stroke-linecap="round" stroke-linejoin="round"/>
</svg>
